<?xml version="1.0" encoding="UTF-8" standalone="no"?>
<svg
   xmlns:dc="http://purl.org/dc/elements/1.1/"
   xmlns:cc="http://creativecommons.org/ns#"
   xmlns:rdf="http://www.w3.org/1999/02/22-rdf-syntax-ns#"
   xmlns:svg="http://www.w3.org/2000/svg"
   xmlns="http://www.w3.org/2000/svg"
   xml:space="preserve"
   enable-background="new 0 0 342 150"
   viewBox="0 0 342 150"
   height="150px"
   width="342px"
   y="0px"
   x="0px"
   id="sling-aircraft-logo-white"
   version="1.1"><metadata
   id="metadata845"><rdf:RDF><cc:Work
       rdf:about=""><dc:format>image/svg+xml</dc:format><dc:type
         rdf:resource="http://purl.org/dc/dcmitype/StillImage" /><dc:title></dc:title></cc:Work></rdf:RDF></metadata><defs
   id="defs843" />
<g
   id="g838">
	<path
   style="stroke:#000000;stroke-width:0.62362205;stroke-miterlimit:4;stroke-dasharray:none"
   d="M10.099,143.784l1.64,4.834h2.12l-5.242-15.369H6.222L1,148.618h2.052l1.596-4.834H10.099z    M5.059,142.233l1.505-4.446c0.296-0.935,0.547-1.87,0.775-2.782h0.046c0.228,0.89,0.456,1.8,0.8,2.805l1.505,4.424L5.059,142.233   L5.059,142.233z M21.179,133.249v15.369h1.984v-15.369H21.179z M31.689,148.618h1.984v-6.658h1.87   c1.8,0.068,2.622,0.867,3.08,2.987c0.433,1.916,0.775,3.24,1.026,3.671h2.052c-0.32-0.593-0.684-2.075-1.186-4.218   c-0.365-1.596-1.072-2.691-2.257-3.101v-0.068c1.735-0.511,2.919-2.113,2.896-3.922c0.037-1.102-0.404-2.166-1.209-2.92   c-0.958-0.866-2.326-1.254-4.446-1.254c-1.276-0.011-2.551,0.096-3.808,0.32v15.164h-0.002   C31.689,148.619,31.689,148.618,31.689,148.618z M33.673,134.845c0.644-0.14,1.302-0.201,1.96-0.182   c2.098,0.023,3.534,0.889,3.534,2.873c0,1.756-1.346,2.92-3.466,2.92h-2.029L33.673,134.845L33.673,134.845z M59.346,146.542   c-1.023,0.438-2.126,0.656-3.238,0.64c-3.74,0-5.906-2.417-5.906-6.18c0-4.036,2.394-6.339,5.997-6.339   c1.068-0.019,2.127,0.2,3.101,0.64l0.48-1.619C59.256,133.41,58.047,133,56.132,133c-4.766,0-8.026,3.261-8.026,8.072   c0,5.04,3.261,7.776,7.593,7.776c1.389,0.046,2.773-0.203,4.059-0.73L59.346,146.542z M67.302,148.617h1.984v-6.657h1.87   c1.8,0.068,2.622,0.867,3.08,2.987c0.433,1.916,0.775,3.24,1.026,3.671h2.052c-0.32-0.593-0.684-2.075-1.186-4.218   c-0.365-1.596-1.072-2.691-2.257-3.101v-0.068c1.735-0.511,2.919-2.113,2.896-3.922c0.037-1.102-0.404-2.166-1.208-2.92   c-0.958-0.866-2.326-1.254-4.446-1.254c-1.276-0.011-2.551,0.096-3.808,0.32v15.164L67.302,148.617z M69.286,134.844   c0.644-0.14,1.302-0.201,1.96-0.182c2.098,0.023,3.534,0.889,3.534,2.873c0,1.756-1.346,2.92-3.466,2.92h-2.03v-5.61   L69.286,134.844z M92.566,143.783l1.64,4.834h2.12l-5.244-15.369h-2.394l-5.22,15.37h2.052l1.596-4.834L92.566,143.783   L92.566,143.783z M87.526,142.232l1.505-4.446c0.296-0.935,0.547-1.87,0.775-2.782h0.046c0.228,0.89,0.456,1.8,0.8,2.805   l1.505,4.424L87.526,142.232L87.526,142.232z M103.646,148.617h1.984v-6.955h5.815v-1.64h-5.816v-5.108h6.294v-1.664h-8.278   L103.646,148.617L103.646,148.617z M121.795,148.617h2.007v-13.68h4.697v-1.687h-11.38v1.687h4.674v13.68L121.795,148.617   L121.795,148.617z"
   fill="#ffffff"
   id="aircraft" />
	<g
   id="grp-arrow">
		<polygon
   points="139.463,126.696 139.586,127.028 146.8,146.4 146.8,118   "
   fill="#790002"
   id="arrow-2" />
		<polygon
   points="106,126.696 139.463,126.696 146.8,118   "
   fill="#EE202E"
   id="arrow-1" />
	</g>
	<g
   id="grp-sling">
		<path
   style="stroke:#000000"
   d="M177.606,69.158l-0.043-0.047l3.577-3.02c4.717-4.025,9.189-8.393,13.496-13.081    c4.838-5.279,9.348-10.924,13.578-16.961c7.884-11.213,12.07-20.395,12.641-27.537l-0.246-1.204    c-0.325-1.004-1.137-1.496-2.48-1.446c-3.983,0.344-10.688,8.123-20.037,23.364l-6.099,11.018l-4.022,7.83l-7.033,14.089    L177.606,69.158z M310.841,117.36l-0.082-0.074l-5.08,2.453l-9.431,5.032c-8.778,5.13-14.511,9.279-17.112,12.444    c-1.422,1.57-2.113,3.263-2.035,5.106c0.164,2.426,1.71,3.629,4.635,3.583c3.21,0.047,6.627-1.645,10.282-5.083l5.814-6.185    l7.033-8.588l4.55-6.31L310.841,117.36z M322.748,96.597L322.748,96.597l-11.258,8.099c-8.087,5.865-14.796,8.76-20.037,8.662    c-4.389,0-7.845-0.93-10.407-2.774c-2.335-1.676-3.554-3.618-3.69-5.845c-1.812,1.09-4.276,2.399-7.388,3.931    c-6.502,3.168-11.219,4.739-14.144,4.689c-6.099-0.047-9.063-1.645-8.904-4.759c0-1.719,0.774-3.903,2.359-6.556l3.698-6.329    l3.698-6.334l2.523-4.247c0.445-0.808,0.73-1.594,0.812-2.305c0-1.301-1.097-2.063-3.335-2.309    c-2.316,0.051-4.757,1.082-7.396,3.094l-5.811,4.763l-9.759,8.588c-2.886,2.579-5.569,5.451-8.087,8.565    c-1.828,2.309-3.495,4.149-4.999,5.497c-0.57,0.566-1.223,0.934-1.909,1.082l-2.277,0.219h-5.935l-0.855-0.512l0.367-1.426    l0.489-1.078l2.777-6.06c-1.363,0.918-2.777,1.832-4.222,2.746c-3.253,2.059-6.26,3.755-9.063,5.055    c-3.171,1.594-6.342,2.356-9.512,2.305c-5.322,0-8.087-1.691-8.333-5.103c-0.07-1.328,0.262-2.837,0.964-4.501l-3.557,2.192    l-6.787,3.583c-5.569,2.653-10.403,3.927-14.468,3.829c-6.505,0.051-9.797-2.012-9.88-6.185c-0.078-2.774,0.734-6.036,2.398-9.768    l3.214-7.56l-0.043-0.047l-4.26,2.852c-4.409,2.95-7.204,1.739-1.215-2.18l7.197-4.689l4.253-9.236    c5.139-11.159,9.141-18.754,11.422-23.071c2.636-4.986,5.448-9.791,8.454-14.456c3.292-5.251,6.791-10.284,10.61-15.093    c2.722-3.532,5.607-6.993,8.697-10.33c7.642-8.494,13.945-12.69,18.943-12.593c2.48,0,4.471,0.934,5.975,2.798    c0.812,1.496,1.339,3.044,1.667,4.665c-0.328,8.197-3.62,16.91-9.88,26.162c-3.128,4.54-8.372,10.529-15.769,17.941l-9.633,9.275    l-9.875,8.393l-5.854,5.032v0.074l-6.303,11.51c-2.601,5.181-4.878,10.479-6.787,15.879l-0.691,3.169    c0.082,0.687,0.246,1.199,0.57,1.594l1.339,0.711l1.667,0.293c0.938-0.047,1.909-0.195,2.847-0.442l3.331-1.153l4.674-2.16    c5.37-2.813,8.657-2.93,11.414-8.639l7.516-14.725c0.328-0.661,0.817-1.227,1.546-1.645c0.73-0.391,1.667-0.711,2.847-0.929    l6.096-1.008l2.48-0.368c1.218,0.195,1.788,0.637,1.788,1.375l-0.367,1.078L196.78,101.8l-1.422,3.044l-0.367,1.641    c0.246,1.449,1.14,2.114,2.644,2.012l0.933-0.07c0.895-0.246,1.831-0.641,2.886-1.156l5.693-3.337l4.429-2.97    c4.611-3.407,8.81-14.031,11.648-19.438l0.61-1.301c0.285-0.418,0.691-0.762,1.18-1.004l2.031-0.492l7.033-1.078l1.667-0.222    l0.812,0.293l0.367,0.492l-0.489,1.52l-9.391,18.754l7.603-6.529l8.576-7.193c5.892-4.81,11.302-7.24,16.299-7.337    c3.05,0.051,5.607,0.711,7.763,2.012s3.171,2.798,3.089,4.54c-0.082,2.012-0.731,4.075-1.909,6.185l-3.698,5.817l-5.935,9.131    l-0.61,1.52c0,1.25,0.976,1.864,2.843,1.864c1.102,0,2.441-0.34,4.026-1.004l5.811-2.821l4.389-2.458    c3.851-2.301,5.252-7.165,9.333-10.995c4.35-4.075,9.797-7.286,16.339-9.62c7.279-2.653,15.608-4.025,24.879-4.172    c9.958-0.051,14.835,0.86,14.671,2.751l-0.489,1.102l-0.933,1.301l-2.398-0.637l-4.19-1.008c-1.664-0.219-3.495-0.368-5.486-0.418    c-7.072,0-13.898,1.77-20.524,5.302c-3.413,1.817-6.381,3.879-8.942,6.185c-5.163,4.591-7.763,8.787-7.763,12.616    c-0.164,2.579,1.422,3.876,4.795,3.876c2.644,0.051,5.123-0.489,7.521-1.57c3.819-1.691,7.314-3.704,10.403-6.11l7.56-6.11    c3.089-2.723,5.365-4.908,6.748-6.552c1.382-1.668,2.968-2.528,4.717-2.625l1.909,0.149l2.886,0.293l1.788,0.27l0.691,0.368    l0.242,0.418l-0.363,1.078l-2.359,5.181c-1.382,3.02-3.78,7.533-7.275,13.522l-0.082-0.098l7.642-3.68l1.909-0.785l0.57-0.074    l1.422,0.637l0.489,0.739c-0.164,0.465-0.691,0.929-1.546,1.371l-11.786,6.041l0.082,0.098l-1.425,2.208l-5.85,9.498    c-0.938,1.622-2.644,4.025-5.123,7.142c-2.48,3.142-5.08,5.989-7.845,8.541c-2.48,2.38-5.448,4.442-8.942,6.162    c-5.486,2.872-10.809,4.345-15.971,4.391c-3.089,0-5.65-0.613-7.642-1.84c-1.952-1.227-2.886-2.723-2.726-4.493    c0-4.196,4.026-8.881,12.031-14.136c6.099-4.025,13.578-8.174,22.477-12.444l6.545-3.039l0.043,0.098L322.748,96.597z     M213.244,56.076c5.607,0.149,8.576,1.989,8.899,5.521c-0.242,3.485-3.21,5.279-8.899,5.376c-5.935-0.149-8.982-1.938-9.146-5.376    C204.34,58.112,207.39,56.272,213.244,56.076"
   fill="#ffffff"
   id="ling" />
		<path
   style="stroke:#000000"
   d="M5.395,101.923l1.316-0.859l1.125-0.219c0.414,0,1.203,0.219,2.292,0.661    c3.753,1.645,8.974,3.169,15.729,4.568c8.111,1.84,16.299,3.263,24.519,4.293c9.239,1.25,18.4,1.863,27.488,1.817    c12.168,0.047,22.942-1.524,32.29-4.689c12.395-4.224,18.662-9.819,18.814-16.789c0-2.602-0.75-5.029-2.292-7.286    c-2.066-2.97-4.694-5.497-7.923-7.56c-3.304-2.063-7.658-4.466-13.066-7.193c-6.533-3.165-12.805-6.427-18.811-9.791    c-6.533-3.434-11.867-6.97-15.959-10.577c-4.62-3.782-6.908-7.853-6.833-12.225c0.074-10.112,9.501-18.309,28.277-24.591    c8.298-2.798,17.233-4.931,26.808-6.455c9.575-1.496,18.549-2.258,26.886-2.258c5.67,0,11.188,0.394,16.635,1.156    c10.473,1.469,15.694,4.982,15.62,10.479c-0.227,6.501-6.873,13.179-19.978,20.028c-3.155,1.668-6.42,3.212-9.762,4.587    c-2.066,0.911-3.643,1.352-4.729,1.301c-0.601,0.051-1.73-0.219-3.417-0.785l-7.025-2.16l-1.539-1.153l0.301-0.442l1.539-0.785    l6.724-2.235c2.777-0.808,6.045-1.984,9.837-3.508c4.393-1.691,8.372-3.508,11.976-5.474c6.42-3.411,9.614-6.673,9.54-9.838    c-0.301-5.06-8.825-7.588-25.609-7.634c-5.67,0-11.68,0.442-18.06,1.301c-7.774,1.055-15.058,2.602-21.856,4.614    c-8.146,2.453-14.866,5.228-20.126,8.346c-7.772,4.563-11.603,8.931-11.451,13.053c-0.078,2.825,1.312,5.549,4.167,8.151    c4.921,4.54,13.554,9.693,25.945,15.46c7.474,3.611,13.332,6.506,17.498,8.713c7.173,4.075,12.316,8.764,15.398,14.089    c1.238,2.258,1.874,4.614,1.874,7.044c0,4.908-2.515,9.62-7.584,14.183c-4.241,3.731-10.324,6.798-18.248,9.205    c-11.527,3.508-26.66,5.251-45.435,5.251c-18.697,0.098-36.762-1.594-54.221-5.055c-4.018-0.758-7.736-1.817-11.188-3.091    L1,106.537l1.425-1.864L5.395,101.923z"
   fill="#ffffff"
   id="s" />
	</g>
</g>
</svg>